<svg xmlns="http://www.w3.org/2000/svg" viewBox="0 0 513.35 425.8"><defs><style>.cls-1{fill:none;stroke:#000;stroke-miterlimit:10;}</style></defs><title>Asset 2</title><g id="Layer_2" data-name="Layer 2"><g id="Layer_1-2" data-name="Layer 1"><ellipse class="cls-1" cx="256.67" cy="243.42" rx="259.5" ry="177" transform="translate(-47.15 62.24) rotate(-12.67)"/><path d="M107.17,118.81a466.14,466.14,0,0,1,13.2-50q4-12.3,8.68-24.36,2.61-6.71,5.43-13.33c1.52-3.57,2.91-8.71,5.24-11.82q.59-3,4-2.49l1.54,1.12c2.13,1,4.24,3.11,6.14,4.5,3.49,2.55,7,5.1,10.48,7.68,7,5.16,13.51,10.6,18.93,17.42,8.67,10.91,16.47,23.91,31.53,25.88,1.91.25,1.89-2.75,0-3C194,68,186,46.32,173.3,35.29,166.88,29.7,159.81,24.86,153,19.84c-3.72-2.73-10.29-10.37-14.51-4.77-2.3,3.07-3.56,7.63-5.09,11.14q-2.65,6.1-5.15,12.29-5.17,12.86-9.57,26A464.24,464.24,0,0,0,104.28,118c-.39,1.89,2.5,2.69,2.89.8Z"/><path d="M376.05,74.26c16-5.17,25.65-19.32,36.64-31,14.17-15.1,30.61-27.81,47-40.42l-2-.54c4.08,7.61,4.33,16.06,3.89,24.5-.49,9.23-1.33,18.46-2,27.69l-4.17,56.48c-.14,1.92,2.86,1.91,3,0l4.47-60.44c1.17-15.89,5.34-35-2.58-49.74a1.52,1.52,0,0,0-2.06-.54C443,11.88,427.84,23.56,414.39,37.15c-12,12.11-22.15,28.71-39.14,34.21-1.83.6-1.05,3.49.8,2.9Z"/><path d="M256.51,226c-1.44.74-3,1.79-3.42,3.49a2.56,2.56,0,0,0,1.58,3.1c2.31.81,4.87-1.51,3.06-3.64a1.53,1.53,0,0,0-1.81-.24,9,9,0,0,0-5.15,6.42,1.52,1.52,0,0,0,1.85,1.85,21.18,21.18,0,0,0,10.32-6.7c1-1.21-.33-3.43-1.82-2.36a22,22,0,0,0-7.33,8.81,1.5,1.5,0,0,0,2.59,1.51,20.78,20.78,0,0,0,3-7.59c.29-1.57-1.9-2.75-2.75-1.15a5.77,5.77,0,0,0,1.05,7.06,1.53,1.53,0,0,0,2.36-.31,8.81,8.81,0,0,0-5-12.71,1.47,1.47,0,0,0-1.46.39,20.56,20.56,0,0,0-4.5,11,1.51,1.51,0,0,0,1.5,1.5,5.53,5.53,0,0,0,5.31-4c.61-1.84-2.29-2.62-2.9-.8a2.48,2.48,0,0,1-2.41,1.77l1.5,1.5a17,17,0,0,1,3.62-8.92l-1.46.39a5.75,5.75,0,0,1,3.24,8.3l2.36-.31a2.71,2.71,0,0,1-.58-3.42l-2.74-1.16a18.57,18.57,0,0,1-2.71,6.88l2.59,1.51a19.1,19.1,0,0,1,6.26-7.73l-1.82-2.36a18.33,18.33,0,0,1-9,5.93l1.85,1.85a6.29,6.29,0,0,1,3.76-4.63l-1.82-.23c-1.19-1.4,1.62-2.07,2.42-2.48,1.72-.87.2-3.46-1.52-2.59Z"/><path d="M253.69,224.29l-81.93-14.08c-1.89-.33-2.7,2.56-.8,2.89l81.94,14.08c1.89.33,2.7-2.56.79-2.89Z"/><path d="M250.33,232.91A1002.67,1002.67,0,0,0,97.85,251.84c-1.89.38-1.09,3.27.8,2.89a995.94,995.94,0,0,1,151.68-18.82c1.92-.09,1.93-3.09,0-3Z"/><path d="M245.15,233.24l-78.7,44c-1.69.94-.18,3.53,1.51,2.59l78.7-44c1.69-.94.18-3.54-1.51-2.59Z"/><path d="M258.07,229.89l57-47.12c1.49-1.23-.65-3.35-2.12-2.12l-57,47.12c-1.48,1.23.65,3.34,2.13,2.12Z"/><path d="M261.92,230.25q43.21-8.67,86.15-18.65c1.88-.44,1.08-3.34-.8-2.9q-42.93,10-86.15,18.65c-1.89.38-1.09,3.27.8,2.9Z"/><path d="M262.44,234.3a482.48,482.48,0,0,0,83.7,13.2c1.93.13,1.92-2.87,0-3a477.13,477.13,0,0,1-82.9-13.09c-1.87-.47-2.67,2.42-.8,2.89Z"/><path d="M143.53,366.38a1927.46,1927.46,0,0,0,199.24-47.3q28.16-8.28,56-17.43c1.83-.6,1-3.5-.79-2.9a1924.23,1924.23,0,0,1-197.71,53.37q-28.69,6.12-57.56,11.37c-1.9.34-1.09,3.23.8,2.89Z"/><path d="M159.18,140.67l-1.9.24a7.81,7.81,0,0,0-4,.9,8,8,0,0,0-3.38,2.17,7.79,7.79,0,0,0-2.17,3.38,7.94,7.94,0,0,0-.91,4l.38,2.79a10.49,10.49,0,0,0,2.7,4.63l2.12,1.64a10.52,10.52,0,0,0,5.3,1.44,3.09,3.09,0,0,0,.43,0l1.53-.2c.52,0,1-.12,1.54-.21a13.68,13.68,0,0,0,3.17-1.31,3.5,3.5,0,0,0,.35-.23l2.13-1.64.21-.18a12.18,12.18,0,0,0,1-1.27,13.79,13.79,0,0,0,1.06-1.42l1.06-2.51.37-2.79-.37-2.79a8,8,0,0,0-1.88-3.57,10.55,10.55,0,0,0-4.2-3.23,5.15,5.15,0,0,0-2.65-.72,8,8,0,0,0-4.19.19l-1.83.48a7.8,7.8,0,0,0-3.57,1.88,8,8,0,0,0-2.7,2.94,7.79,7.79,0,0,0-1.25,3.91,7.93,7.93,0,0,0,.19,4.18l1.06,2.51a10.61,10.61,0,0,0,3.76,3.77l2.51,1.06a10.57,10.57,0,0,0,5.58,0l1.83-.48-11.85-15.43a3.07,3.07,0,0,1-.24.35l1.64-2.12a3,3,0,0,1-.4.39l2.12-1.64a3.33,3.33,0,0,1-.61.35l2.51-1.06a2.72,2.72,0,0,1-.54.15l2.79-.37a3.62,3.62,0,0,1-.57,0v21l1.9-.24a7.92,7.92,0,0,0,4-.91,9.43,9.43,0,0,0,5.55-5.55,7.92,7.92,0,0,0,.91-4l-.38-2.79a10.53,10.53,0,0,0-2.7-4.64l-2.12-1.64a10.41,10.41,0,0,0-5.3-1.43Z"/><path d="M382.14,152.71a12.91,12.91,0,0,0,6.69-1.9,13.16,13.16,0,0,0,4.69-5,13.42,13.42,0,0,0,1.66-6.79,13.09,13.09,0,0,0-3.59-8.6,13.24,13.24,0,0,0-12.83-3.31,14.52,14.52,0,0,0-3.23,1.37,12.13,12.13,0,0,0-2.67,2.06,13,13,0,0,0-2.1,2.74,16.55,16.55,0,0,0-1.13,2.68,3,3,0,0,0-.14.57,8,8,0,0,0-.19,4.19,7.79,7.79,0,0,0,1.25,3.91,10.49,10.49,0,0,0,14.36,3.76c2.13-1.37,4.45-3.64,4.83-6.27a2.64,2.64,0,0,1,.14-.57l-1.06,2.5a3.53,3.53,0,0,1,.28-.5l-1.64,2.13a2.81,2.81,0,0,1,.55-.54l-2.13,1.64a3.56,3.56,0,0,1,.69-.38l-2.51,1a4.33,4.33,0,0,1,.77-.19l-2.79.37a4.06,4.06,0,0,1,.78,0l-2.79-.38a5.12,5.12,0,0,1,.56.15l-2.51-1.06a3.6,3.6,0,0,1,.5.29L376.45,145a2.45,2.45,0,0,1,.42.43l-1.64-2.13a1.75,1.75,0,0,1,.2.35l-1.06-2.51a4.17,4.17,0,0,1,.18.57l-.38-2.79a4.28,4.28,0,0,1,0,.8l.37-2.79a4.42,4.42,0,0,1-.22.79l1.06-2.51a4.48,4.48,0,0,1-.42.7l1.64-2.12a4.26,4.26,0,0,1-.42.43l2.12-1.64a2.9,2.9,0,0,1-.68.4l2.51-1.06a2.85,2.85,0,0,1-.39.11l2.79-.38a2.69,2.69,0,0,1-.4,0,10.91,10.91,0,0,0-7.43,3.08,10.51,10.51,0,0,0,0,14.85,10.75,10.75,0,0,0,7.43,3.07Z"/></g></g></svg>